# xmcd CD database file
#
# Track frame offsets:
#	150
#	22602
#	56694
#	70510
#	120275
#	150326
#	179508
#
# Disc length: 2972 seconds
#
# Revision: 0
# Processed by: cddbd v1.5.2PL0 Copyright (c) Steve Scherf et al.
# Submitted via: CDex 1.70beta2
#
DISCID=450b9a07
DTITLE=Paul Holdman - Out of My Hands
DYEAR=2002
DGENRE=Jazz
TTITLE0=Captain Cupcake
TTITLE1=P-Nut
TTITLE2=Lazy River
TTITLE3=I Wish
TTITLE4=Cheesecake
TTITLE5=Cissy Strut
TTITLE6=Lolligaggin'
EXTD=YEAR: 2002
EXTT0=
EXTT1=
EXTT2=
EXTT3=
EXTT4=
EXTT5=
EXTT6=
PLAYORDER=
